<svg xmlns="http://www.w3.org/2000/svg" preserveAspectRatio="xMidYMid" width="18" height="18" viewBox="0 0 34 34"><path d="M4.276.348c.049.358.114.724.196 1.099.032.211.077.419.134.622l.159.574c.064.195.122.391.171.586 1.806.7 3.637 2.193 5.493 4.48 1.855 2.287 2.937 5.212 3.247 8.777h3.027c-.342-4.378-1.774-8.065-4.297-11.06C9.883 2.432 7.141.56 4.179-.189l.097.537zm7.886 15.601a14.554 14.554 0 0 0-.195-1.099 84.956 84.956 0 0 0-.147-.623 19.652 19.652 0 0 0-.146-.573 8.24 8.24 0 0 1-.171-.586c-1.807-.7-3.638-2.193-5.493-4.48C4.154 6.301 3.072 3.375 2.763-.189H-.265C.077 4.189 1.509 7.876 4.032 10.87c2.523 2.995 5.265 4.867 8.228 5.616l-.098-.537zM34.77 4.352c-.359.049-.725.114-1.099.195l-.623.147c-.203.049-.394.097-.573.146a8.24 8.24 0 0 1-.586.171c-.7 1.807-2.234 3.589-4.602 5.347-2.369 1.758-5.335 2.791-8.899 3.1v3.028c4.378-.342 8.105-1.725 11.181-4.151 3.077-2.425 4.989-5.118 5.738-8.081l-.537.098zm-15.845 7.593c.358-.049.724-.114 1.098-.196.212-.032.419-.077.623-.134l.574-.159c.195-.064.39-.122.586-.171.699-1.806 2.234-3.588 4.602-5.346 2.368-1.758 5.334-2.791 8.899-3.101V-.189c-4.379.342-8.106 1.725-11.182 4.15-3.076 2.426-4.989 5.119-5.737 8.081l.537-.097zm11.841 22.339a14.083 14.083 0 0 0-.196-1.099c-.049-.211-.097-.419-.146-.623a19.543 19.543 0 0 0-.147-.573 8.24 8.24 0 0 1-.171-.586c-1.806-.7-3.629-2.193-5.468-4.48-1.84-2.287-2.914-5.213-3.223-8.777h-3.027c.341 4.378 1.766 8.065 4.272 11.059 2.506 2.995 5.241 4.867 8.203 5.616l-.097-.537zm-7.837-15.601c.049.358.113.724.195 1.099.032.211.077.419.134.622l.159.574c.065.195.122.39.171.586 1.807.7 3.629 2.193 5.469 4.48 1.839 2.287 2.913 5.212 3.222 8.777h3.028c-.342-4.378-1.767-8.065-4.273-11.06-2.506-2.994-5.241-4.866-8.203-5.615l.098.537zM.272 30.28c.358-.049.724-.114 1.099-.196.211-.032.419-.077.623-.134l.573-.159a8.8 8.8 0 0 1 .586-.171c.7-1.806 2.242-3.588 4.627-5.346 2.384-1.758 5.359-2.791 8.923-3.101v-3.027c-4.378.342-8.114 1.725-11.206 4.15-3.093 2.426-5.013 5.119-5.762 8.081l.537-.097zm15.894-7.593a14.554 14.554 0 0 0-1.721.342c-.204.048-.395.097-.574.146a8.09 8.09 0 0 1-.586.171c-.7 1.807-2.242 3.589-4.626 5.347-2.385 1.758-5.359 2.791-8.924 3.1v3.028c4.378-.342 8.114-1.725 11.206-4.151 3.093-2.425 5.013-5.118 5.762-8.081l-.537.098z" fill-rule="evenodd" fill="palegreen"/></svg>