<svg xmlns="http://www.w3.org/2000/svg" preserveAspectRatio="xMidYMid" width="128" height="64"><path d="M98.382 37.458c-8.104 0-10.845-5.072-10.845-12.36V9.297h4.665v15.276c0 4.606.524 8.57 6.18 8.57 5.655 0 6.18-3.964 6.18-8.57V9.297h4.664v15.801c0 7.288-2.74 12.36-10.844 12.36zm-34.074 1.024l-6.901 15.651-11.9-24.201h5.1l6.8 14.901 6.901-16.201 6.85 16.201 6.801-14.901h5.1L71.158 54.133l-6.85-15.651zm-34.382-1.024c-8.104 0-10.845-5.072-10.845-12.36V9.297h4.665v15.276c0 4.606.524 8.57 6.18 8.57 5.655 0 6.18-3.964 6.18-8.57V9.297h4.664v15.801c0 7.288-2.74 12.36-10.844 12.36z" fill="palegreen" fill-rule="evenodd"/></svg>